<?xml version="1.0" encoding="utf-8"?>
<!-- Generator: Adobe Illustrator 16.2.1, SVG Export Plug-In . SVG Version: 6.00 Build 0)  -->
<!DOCTYPE svg PUBLIC "-//W3C//DTD SVG 1.1//EN" "http://www.w3.org/Graphics/SVG/1.1/DTD/svg11.dtd">
<svg version="1.1" id="Layer_1" xmlns="http://www.w3.org/2000/svg" xmlns:xlink="http://www.w3.org/1999/xlink" x="0px" y="0px"
	 width="300px" height="300px" viewBox="0 0 300 300" enable-background="new 0 0 300 300" xml:space="preserve">
<g>
	<g>
		<path fill="none" d="M-1.801,151.478c0-56.903,0.063-113.806-0.124-170.708c-0.015-4.41,0.888-5.303,5.297-5.296
			c96.562,0.16,193.125,0.16,289.689,0c4.406-0.007,5.3,0.886,5.294,5.295c-0.153,113.806-0.153,227.613,0,341.418
			c0.006,4.407-0.885,5.304-5.294,5.296c-96.562-0.16-193.126-0.16-289.689-0.001c-4.408,0.007-5.312-0.885-5.297-5.295
			C-1.738,265.284-1.801,208.381-1.801,151.478z M43.471,155.136c0.009,0,0.019,0,0.028,0c0,28.57-0.016,57.141,0.041,85.71
			c0.003,1.641,0.599,3.279,0.918,4.921c1.719-0.733,3.759-1.097,5.103-2.262c6.759-5.86,7.527-14.207,7.611-22.163
			c0.344-32.507,0.163-65.02,0.182-97.531c0-1.722,0.017-3.447,0.112-5.166c0.025-0.432,0.383-0.845,0.588-1.268
			c0.475,0.438,1.214,0.8,1.364,1.33c0.261,0.921,0.202,1.947,0.203,2.929c0.031,33.492,0.025,66.983,0.136,100.475
			c0.008,2.349,0.442,4.929,1.529,6.942c0.531,0.984,3.659,1.774,4.503,1.15c2.284-1.685,4.971-3.892,5.687-6.405
			c1.391-4.891,2.073-10.127,2.119-15.229c0.229-25.118,0.133-50.238,0.239-75.358c0.007-1.58,0.763-3.156,1.17-4.733
			c0.605,1.612,1.532,3.185,1.74,4.847c0.305,2.426,0.105,4.916,0.1,7.379c-0.043,21.919-0.163,43.839-0.056,65.757
			c0.015,3.096,0.921,6.253,1.868,9.237c0.252,0.796,2.807,1.808,3.237,1.448c2.585-2.167,6.009-4.317,6.981-7.203
			c1.685-5.007,2.347-10.535,2.45-15.862c0.306-15.757,0.09-31.523,0.188-47.286c0.013-2.094,0.66-4.184,1.013-6.276
			c0.515,2.189,1.457,4.374,1.476,6.566c0.136,15.269-0.001,30.541,0.156,45.809c0.033,3.141,0.743,6.322,1.562,9.372
			c0.22,0.817,2.718,1.932,2.948,1.699c2.861-2.892,6.946-5.621,7.882-9.145c1.803-6.785,2.092-14.036,2.452-21.122
			c0.373-7.37,0.063-14.774,0.12-22.162c0.007-0.912,0.432-1.82,0.663-2.73c0.228,0.915,0.649,1.831,0.653,2.747
			c0.046,8.62-0.047,17.241,0.051,25.86c0.033,2.938,0.095,5.99,0.929,8.753c0.402,1.333,3.408,3.29,3.895,2.964
			c3.899-2.611,9.239-3.949,9.564-10.129c0.437-8.312,1.084-16.615,1.855-24.901c0.134-1.449,1.318-2.802,2.018-4.198
			c1.093,1.185,2.756,2.207,3.155,3.591c0.74,2.564,0.704,5.348,1.06,8.03c0.256,1.933-0.033,4.418,1.057,5.677
			c4.688,5.422,1.764,9.459-1.855,13.523c-8.02,9.006-16.039,18.012-24.102,26.978c-4.149,4.613-4.204,4.593,0.932,7.996
			c1.985,1.316,3.567,2.548,1.943,5.314c-6.919,11.787-16.244,15.805-29.681,12.631c-1.436-0.339-2.855-0.882-4.306-0.987
			c-1.438-0.104-3.053-0.104-4.322,0.459c-1.208,0.534-2.069,1.855-3.082,2.829c0.979,0.9,1.828,2.325,2.959,2.604
			c3.089,0.756,6.328,0.887,9.443,1.562c1.32,0.285,2.48,1.312,3.713,2.002c-0.72,1.17-1.204,2.622-2.203,3.456
			c-3.396,2.837-7.279,5.15-10.378,8.261c-2.109,2.116-3.812,5.066-4.604,7.944c-0.741,2.696,1.25,4.429,3.958,2.682
			c2.393-1.541,4.131-4.082,6.481-5.713c4.111-2.854,8.47-5.348,12.726-7.993c1.308,3.783,2.669,7.55,3.894,11.36
			c0.371,1.155,0.048,2.597,0.589,3.619c1.471,2.778,3.18,5.439,4.969,8.026c0.162,0.235,2.274-0.329,2.304-0.64
			c0.211-2.153,0.305-4.36,0.071-6.511c-0.418-3.854-1.487-7.672-1.57-11.52c-0.128-5.924,1.043-6.824,7.116-5.681
			c3.825,0.72,7.469,2.426,11.299,3.091c1.75,0.305,3.75-0.834,5.639-1.318c-1.099-2.001-1.982-4.175-3.397-5.917
			c-0.591-0.726-2.489-0.232-3.49-0.812c-3.51-2.035-6.887-4.297-10.315-6.472c2.365-2.983,4.501-6.205,7.217-8.825
			c0.961-0.927,4.279-1.156,4.908-0.385c3.377,4.131,5.462,3.006,7.667-0.984c0.666-1.207,2.213-1.895,3.221-2.947
			c2.875-3.009,3.795-2.034,4.141,1.675c1.166,12.482-0.444,24.698-4.886,36.255c-1.395,3.63-5.862,6.312-9.362,8.812
			c-2.097,1.497-5.02,1.891-7.618,2.618c-2.443,0.683-2.716,1.832-1.062,3.611c3.376,3.635,17.178,7.226,21.368,4.811
			c4.525-2.606,7.319-0.779,10.349,2.164c9.129,8.862,9.15,8.841,17.8-0.253c0.169-0.177,0.335-0.363,0.474-0.565
			c2.235-3.261,5.268-3.529,8.431-1.832c8.117,4.354,14.666-0.554,21.517-3.512c0.933-0.402,1.419-1.842,2.111-2.801
			c-0.943-0.557-1.824-1.311-2.843-1.638c-6.604-2.124-13.374-4.001-15.884-11.656c-3.621-11.045-6.281-22.254-5.23-34.009
			c0.122-1.366,0.78-2.686,1.189-4.026c1.33,0.478,2.768,0.776,3.959,1.486c1.018,0.606,1.922,1.573,2.582,2.575
			c2.187,3.315,4.32,3.357,7.132,0.579c0.888-0.878,3.611-1.433,4.167-0.854c2.964,3.075,5.506,6.557,8.193,9.898
			c-3.454,2.121-6.901,4.256-10.376,6.344c-0.398,0.239-0.953,0.219-1.437,0.312c-3.852,0.745-7.229,3.484-6.048,6.856
			c1.321,3.764,5.353,1.134,8.328,0.514c4.898-1.023,11.546-4.106,14.409-2.06c4.559,3.259,1.129,9.808,0.125,15.068
			c-0.581,3.04,0.376,6.373,0.641,9.572c2.07-2.854,4.49-5.53,6.08-8.631c0.941-1.835,0.466-4.359,0.824-6.54
			c0.317-1.932,0.763-3.87,1.41-5.714c1.134-3.228,3.205-4.229,6.245-2.152c4.163,2.844,9.14,4.434,11.552,9.771
			c0.906,2.007,4.524,2.79,6.906,4.131c-0.305-3.241-0.342-6.54-1.059-9.686c-0.255-1.12-2.165-1.856-3.307-2.782
			c-3.249-2.638-6.481-5.296-9.741-7.92c-3.086-2.484-2.135-4.188,1.169-4.922c3.112-0.691,6.368-0.73,9.49-1.393
			c1.24-0.263,2.287-1.433,3.423-2.188c-1.044-1.249-1.884-3.209-3.179-3.578c-1.996-0.57-4.315-0.176-6.478,0.031
			c-4.639,0.446-9.262,1.363-13.898,1.421c-2.227,0.027-4.959-0.911-6.608-2.375c-3.665-3.254-6.975-6.97-10.017-10.822
			c-0.85-1.076-0.861-4.481-0.234-4.799c6.895-3.488,2.781-6.887,0.106-10.212c-7.24-8.998-14.669-17.846-21.753-26.963
			c-1.528-1.967-3.002-4.993-2.636-7.226c1.103-6.726,3.104-13.306,4.821-19.926c0.164-0.637,0.779-1.155,1.186-1.729
			c0.551,0.677,1.557,1.338,1.58,2.032c0.179,5.164-0.374,10.408,0.335,15.484c0.98,7.016,0.251,14.877,8.227,19.217
			c4.729,2.572,6.487,2.221,7.412-3.209c0.451-2.645,0.353-5.396,0.365-8.099c0.037-8.374-0.006-16.747,0.031-25.121
			c0.003-0.681,0.381-1.361,0.585-2.042c0.363,0.714,1.032,1.422,1.043,2.141c0.086,6.156-0.184,12.326,0.115,18.468
			c0.404,8.314,1.133,16.617,1.902,24.907c0.282,3.035,8.672,11.047,9.54,9.854c2.021-2.776,3.256-6.248,4.251-9.604
			c0.607-2.047,0.231-4.401,0.206-6.617c-0.168-14.524-0.384-29.048-0.501-43.572c-0.009-1.062,0.632-2.129,0.972-3.193
			c0.323,1.081,0.921,2.16,0.927,3.243c0.069,13.299-0.217,26.606,0.158,39.896c0.228,8.036,0.778,16.193,2.527,23.995
			c0.773,3.449,4.818,8.582,7.48,8.646c4.377,0.105,4.477-5.2,4.469-9.234c-0.034-21.181,0.021-42.36,0.058-63.54
			c0.008-4.433-0.052-8.872,0.188-13.293c0.064-1.191,1.114-2.329,1.713-3.491c0.407,1.053,1.087,2.084,1.168,3.162
			c0.183,2.45,0.082,4.922,0.08,7.384c-0.01,22.905-0.168,45.811,0.071,68.713c0.058,5.575,0.631,11.424,2.491,16.6
			c1.126,3.134,5.18,5.215,7.92,7.769c1.305-2.972,2.633-5.936,3.887-8.93c0.173-0.41-0.032-0.974-0.032-1.464
			c-0.028-32.751-0.056-65.502-0.077-98.252c-0.002-0.98-0.033-1.973,0.108-2.935c0.056-0.378,0.551-0.691,0.846-1.034
			c0.326,0.306,0.907,0.591,0.934,0.922c0.137,1.713,0.17,3.438,0.173,5.158c0.038,29.309-0.086,58.619,0.202,87.926
			c0.072,7.271,1.591,14.521,2.225,21.799c0.487,5.607,4.485,8.487,8.349,11.528c1.827,1.439,3.211,1.168,3.501-1.372
			c0.141-1.214,0.021-2.458,0.021-3.689c0.003-54.432,0.165-108.864-0.152-163.293c-0.053-8.761-2.245-17.51-3.437-26.266
			c-0.521-3.807-1.732-7.697-1.325-11.406c0.481-4.385-1.09-5.825-4.725-4.605c-8,2.684-15.499-0.241-23.224-1.184
			c-4.062-0.496-8.63-0.878-12.302,0.487c-4.109,1.527-8.343,4.427-10.96,7.905c-4.997,6.643-0.987,14.447,7.195,15.676
			c4.939,0.742,9.079-0.389,12.996-3.597c5.993-4.908,10.504-3.308,13.225,4.066c3.11,8.428-0.299,14.676-6.042,20.543
			c-13.188,13.47-30.693,16.827-47.944,20.775c-3.36,0.769-5.215-0.883-4.612-4.556c0.199-1.215,0.531-2.409,0.693-3.628
			c1.604-12.074,2.4-23.954-4.118-35.209c-2.036-3.515-3.014-7.87-3.516-11.958c-0.274-2.233,0.824-5.345,2.421-6.951
			c3.306-3.327,1.886-4.073-1.531-5.381c-5.707-2.185-11.334-4.655-16.776-7.433c-6.784-3.462-13.536-3.851-20.637-1.276
			c-3.164,1.146-6.614,1.588-9.654,2.97c-2.806,1.274-5.611,3.014-7.737,5.207c-2.645,2.729-2.354,8.696,0.195,10.816
			c3.626,3.014,4.275-1.709,6.224-2.82c3.769-2.15,3.802-2.025,4.853,2.326c0.408,1.694,2.789,3.1,4.533,4.231
			c1.609,1.043,3.57,1.544,5.376,2.284c-2.341,0.223-4.679,0.511-7.025,0.629c-0.69,0.035-1.408-0.602-2.105-0.587
			c-0.846,0.018-1.684,0.4-2.525,0.625c0.351,0.874,0.469,2.25,1.09,2.537c2.851,1.316,5.775,3.004,8.796,3.298
			c5.16,0.502,6.585,3.579,5.393,7.523c-0.916,3.033-3.036,6.318-5.588,8.118c-5.998,4.226-8.504,9.96-9.356,16.804
			c-0.273,2.197-0.341,4.419-0.533,6.627c-0.617,7.096-0.955,7.479-8.224,6.248c-5.324-0.901-10.634-2.025-15.839-3.454
			c-11.897-3.266-23.447-7.189-32.876-15.818c-7.626-6.979-10.85-14.971-7.957-25.138c2.386-8.388,7.359-10.033,13.834-4.466
			c0.747,0.642,1.417,1.38,2.201,1.969c4.99,3.75,10.546,1.775,15.561,0.684c3.674-0.8,4.734-9.473,2.446-14.017
			c-3.799-7.546-11.98-11.074-22.875-9.401c-8.253,1.267-16.39,3.355-24.842,1.439c-3.066-0.696-4.574,0.476-4.043,4.026
			c0.43,2.866,0.887,6.08,0.041,8.727c-4.114,12.858-4.916,26.026-4.845,39.38C43.56,107.847,43.471,131.491,43.471,155.136z"/>
		<path fill-rule="evenodd" clip-rule="evenodd" d="M43.471,155.136c0-23.645,0.089-47.289-0.035-70.933
			c-0.07-13.354,0.731-26.522,4.845-39.38c0.847-2.646,0.389-5.86-0.041-8.727c-0.531-3.551,0.977-4.722,4.043-4.026
			c8.452,1.916,16.588-0.172,24.842-1.439C88.02,28.959,96.201,32.487,100,40.033c2.288,4.544,1.228,13.217-2.446,14.017
			c-5.015,1.091-10.571,3.066-15.561-0.684c-0.784-0.589-1.454-1.327-2.201-1.969c-6.475-5.566-11.448-3.922-13.834,4.466
			c-2.893,10.167,0.331,18.159,7.957,25.138c9.43,8.628,20.979,12.552,32.876,15.818c5.205,1.429,10.515,2.553,15.839,3.454
			c7.27,1.231,7.607,0.849,8.224-6.248c0.191-2.208,0.259-4.431,0.533-6.627c0.852-6.844,3.358-12.578,9.356-16.804
			c2.552-1.799,4.672-5.085,5.588-8.118c1.192-3.944-0.232-7.021-5.393-7.523c-3.021-0.293-5.946-1.982-8.796-3.298
			c-0.622-0.287-0.74-1.663-1.09-2.537c0.841-0.225,1.679-0.607,2.525-0.625c0.697-0.015,1.415,0.622,2.105,0.587
			c2.346-0.119,4.684-0.406,7.025-0.629c-1.806-0.74-3.767-1.241-5.376-2.284c-1.744-1.131-4.125-2.537-4.533-4.231
			c-1.051-4.352-1.083-4.476-4.853-2.326c-1.949,1.111-2.598,5.834-6.224,2.82c-2.549-2.121-2.84-8.087-0.195-10.816
			c2.126-2.193,4.932-3.933,7.737-5.207c3.04-1.381,6.49-1.823,9.654-2.97c7.101-2.574,13.853-2.186,20.637,1.276
			c5.442,2.778,11.069,5.248,16.776,7.433c3.417,1.308,4.837,2.054,1.531,5.381c-1.597,1.606-2.695,4.718-2.421,6.951
			c0.502,4.088,1.479,8.443,3.516,11.958c6.519,11.255,5.723,23.136,4.118,35.209c-0.162,1.219-0.494,2.413-0.693,3.628
			c-0.603,3.672,1.252,5.324,4.612,4.556c17.251-3.948,34.757-7.305,47.944-20.775c5.743-5.867,9.152-12.116,6.042-20.543
			c-2.721-7.374-7.231-8.974-13.225-4.066c-3.917,3.208-8.057,4.338-12.996,3.597c-8.183-1.229-12.192-9.033-7.195-15.676
			c2.617-3.479,6.851-6.378,10.96-7.905c3.672-1.365,8.239-0.983,12.302-0.487c7.725,0.942,15.224,3.867,23.224,1.184
			c3.635-1.22,5.206,0.221,4.725,4.605c-0.407,3.709,0.805,7.599,1.325,11.406c1.191,8.756,3.384,17.505,3.437,26.266
			c0.317,54.429,0.155,108.861,0.152,163.293c0,1.231,0.119,2.476-0.021,3.689c-0.29,2.54-1.674,2.812-3.501,1.372
			c-3.863-3.041-7.861-5.921-8.349-11.528c-0.634-7.278-2.152-14.527-2.225-21.799c-0.288-29.307-0.164-58.617-0.202-87.926
			c-0.003-1.721-0.036-3.445-0.173-5.158c-0.026-0.331-0.607-0.616-0.934-0.922c-0.295,0.343-0.79,0.656-0.846,1.034
			c-0.142,0.962-0.11,1.955-0.108,2.935c0.021,32.75,0.049,65.501,0.077,98.252c0,0.49,0.205,1.054,0.032,1.464
			c-1.254,2.994-2.582,5.958-3.887,8.93c-2.74-2.554-6.794-4.635-7.92-7.769c-1.86-5.176-2.434-11.024-2.491-16.6
			c-0.239-22.902-0.081-45.809-0.071-68.713c0.002-2.462,0.103-4.934-0.08-7.384c-0.081-1.077-0.761-2.109-1.168-3.162
			c-0.599,1.163-1.648,2.3-1.713,3.491c-0.24,4.422-0.181,8.861-0.188,13.293c-0.037,21.18-0.092,42.359-0.058,63.54
			c0.008,4.034-0.092,9.34-4.469,9.234c-2.662-0.063-6.707-5.196-7.48-8.646c-1.749-7.802-2.3-15.959-2.527-23.995
			c-0.375-13.289-0.089-26.597-0.158-39.896c-0.006-1.083-0.604-2.162-0.927-3.243c-0.34,1.064-0.98,2.131-0.972,3.193
			c0.117,14.524,0.333,29.048,0.501,43.572c0.025,2.216,0.401,4.57-0.206,6.617c-0.995,3.355-2.23,6.827-4.251,9.604
			c-0.868,1.192-9.258-6.819-9.54-9.854c-0.77-8.29-1.498-16.593-1.902-24.907c-0.299-6.143-0.029-12.312-0.115-18.468
			c-0.011-0.718-0.68-1.427-1.043-2.141c-0.204,0.681-0.582,1.36-0.585,2.042c-0.037,8.374,0.006,16.747-0.031,25.121
			c-0.013,2.703,0.086,5.454-0.365,8.099c-0.925,5.43-2.684,5.781-7.412,3.209c-7.976-4.34-7.246-12.201-8.227-19.217
			c-0.709-5.076-0.156-10.32-0.335-15.484c-0.023-0.694-1.029-1.355-1.58-2.032c-0.406,0.574-1.021,1.093-1.186,1.729
			c-1.717,6.62-3.719,13.2-4.821,19.926c-0.366,2.232,1.107,5.259,2.636,7.226c7.084,9.117,14.513,17.965,21.753,26.963
			c2.675,3.325,6.788,6.724-0.106,10.212c-0.627,0.317-0.615,3.723,0.234,4.799c3.042,3.853,6.352,7.568,10.017,10.822
			c1.649,1.464,4.382,2.402,6.608,2.375c4.637-0.058,9.26-0.975,13.898-1.421c2.162-0.207,4.481-0.602,6.478-0.031
			c1.295,0.369,2.135,2.329,3.179,3.578c-1.136,0.756-2.183,1.926-3.423,2.188c-3.122,0.662-6.378,0.701-9.49,1.393
			c-3.304,0.734-4.255,2.438-1.169,4.922c3.26,2.624,6.492,5.282,9.741,7.92c1.142,0.926,3.052,1.662,3.307,2.782
			c0.717,3.146,0.754,6.444,1.059,9.686c-2.382-1.341-6-2.124-6.906-4.131c-2.412-5.337-7.389-6.927-11.552-9.771
			c-3.04-2.077-5.111-1.075-6.245,2.152c-0.647,1.844-1.093,3.782-1.41,5.714c-0.358,2.181,0.117,4.705-0.824,6.54
			c-1.59,3.101-4.01,5.776-6.08,8.631c-0.265-3.199-1.222-6.532-0.641-9.572c1.004-5.261,4.434-11.81-0.125-15.068
			c-2.863-2.047-9.511,1.036-14.409,2.06c-2.976,0.62-7.007,3.25-8.328-0.514c-1.182-3.372,2.196-6.111,6.048-6.856
			c0.483-0.094,1.038-0.073,1.437-0.312c3.475-2.088,6.922-4.223,10.376-6.344c-2.688-3.342-5.229-6.823-8.193-9.898
			c-0.556-0.578-3.279-0.023-4.167,0.854c-2.812,2.778-4.945,2.736-7.132-0.579c-0.66-1.002-1.564-1.969-2.582-2.575
			c-1.191-0.71-2.629-1.009-3.959-1.486c-0.409,1.341-1.067,2.66-1.189,4.026c-1.051,11.755,1.609,22.964,5.23,34.009
			c2.51,7.655,9.279,9.532,15.884,11.656c1.019,0.327,1.899,1.081,2.843,1.638c-0.692,0.959-1.179,2.398-2.111,2.801
			c-6.851,2.958-13.399,7.865-21.517,3.512c-3.163-1.697-6.195-1.429-8.431,1.832c-0.139,0.202-0.305,0.389-0.474,0.565
			c-8.65,9.094-8.671,9.115-17.8,0.253c-3.03-2.943-5.824-4.771-10.349-2.164c-4.19,2.415-17.992-1.176-21.368-4.811
			c-1.654-1.779-1.381-2.929,1.062-3.611c2.598-0.728,5.521-1.121,7.618-2.618c3.5-2.5,7.967-5.182,9.362-8.812
			c4.442-11.557,6.052-23.772,4.886-36.255c-0.346-3.709-1.267-4.684-4.141-1.675c-1.008,1.053-2.555,1.74-3.221,2.947
			c-2.205,3.99-4.29,5.115-7.667,0.984c-0.629-0.771-3.947-0.542-4.908,0.385c-2.716,2.62-4.853,5.842-7.217,8.825
			c3.428,2.175,6.805,4.437,10.315,6.472c1.001,0.58,2.899,0.087,3.49,0.812c1.415,1.742,2.298,3.916,3.397,5.917
			c-1.888,0.484-3.889,1.623-5.639,1.318c-3.83-0.665-7.474-2.371-11.299-3.091c-6.073-1.144-7.244-0.243-7.116,5.681
			c0.083,3.848,1.152,7.666,1.57,11.52c0.234,2.15,0.14,4.357-0.071,6.511c-0.03,0.311-2.142,0.875-2.304,0.64
			c-1.789-2.587-3.498-5.248-4.969-8.026c-0.541-1.022-0.218-2.464-0.589-3.619c-1.224-3.811-2.585-7.577-3.894-11.36
			c-4.255,2.646-8.615,5.14-12.726,7.993c-2.351,1.631-4.088,4.172-6.481,5.713c-2.709,1.747-4.7,0.015-3.958-2.682
			c0.792-2.878,2.495-5.828,4.604-7.944c3.099-3.11,6.981-5.424,10.378-8.261c1-0.834,1.483-2.286,2.203-3.456
			c-1.232-0.69-2.393-1.717-3.713-2.002c-3.116-0.675-6.354-0.806-9.443-1.562c-1.131-0.279-1.981-1.704-2.959-2.604
			c1.013-0.974,1.874-2.295,3.082-2.829c1.269-0.562,2.884-0.562,4.322-0.459c1.451,0.105,2.87,0.648,4.306,0.987
			c13.437,3.174,22.761-0.844,29.681-12.631c1.624-2.767,0.042-3.998-1.943-5.314c-5.136-3.403-5.081-3.383-0.932-7.996
			c8.063-8.966,16.083-17.972,24.102-26.978c3.619-4.064,6.543-8.102,1.855-13.523c-1.089-1.259-0.801-3.744-1.057-5.677
			c-0.356-2.683-0.32-5.466-1.06-8.03c-0.399-1.385-2.062-2.406-3.155-3.591c-0.699,1.396-1.883,2.749-2.018,4.198
			c-0.771,8.286-1.419,16.59-1.855,24.901c-0.325,6.18-5.665,7.518-9.564,10.129c-0.487,0.326-3.493-1.631-3.895-2.964
			c-0.834-2.763-0.896-5.815-0.929-8.753c-0.098-8.619-0.005-17.24-0.051-25.86c-0.004-0.916-0.425-1.832-0.653-2.747
			c-0.231,0.91-0.655,1.818-0.663,2.73c-0.056,7.388,0.253,14.792-0.12,22.162c-0.359,7.086-0.648,14.337-2.452,21.122
			c-0.936,3.523-5.021,6.253-7.882,9.145c-0.23,0.232-2.728-0.882-2.948-1.699c-0.819-3.05-1.529-6.231-1.562-9.372
			C94,177.626,94.137,162.354,94,147.085c-0.02-2.192-0.961-4.377-1.476-6.566c-0.354,2.092-1,4.182-1.013,6.276
			c-0.098,15.762,0.118,31.529-0.188,47.286c-0.103,5.327-0.765,10.855-2.45,15.862c-0.972,2.886-4.396,5.036-6.981,7.203
			c-0.43,0.359-2.984-0.652-3.237-1.448c-0.946-2.984-1.853-6.142-1.868-9.237c-0.107-21.918,0.013-43.838,0.056-65.757
			c0.005-2.463,0.205-4.954-0.1-7.379c-0.208-1.662-1.134-3.234-1.74-4.847c-0.407,1.578-1.164,3.154-1.17,4.733
			c-0.106,25.12-0.01,50.24-0.239,75.358c-0.046,5.103-0.728,10.339-2.119,15.229c-0.716,2.514-3.403,4.721-5.687,6.405
			c-0.844,0.624-3.972-0.166-4.503-1.15c-1.087-2.014-1.521-4.594-1.529-6.942c-0.111-33.492-0.105-66.983-0.136-100.475
			c-0.001-0.982,0.058-2.007-0.203-2.929c-0.15-0.53-0.89-0.892-1.364-1.33c-0.205,0.422-0.563,0.836-0.588,1.268
			c-0.095,1.719-0.112,3.444-0.112,5.166c-0.019,32.511,0.162,65.024-0.182,97.531c-0.083,7.956-0.852,16.303-7.611,22.163
			c-1.344,1.165-3.384,1.528-5.103,2.262c-0.319-1.642-0.915-3.28-0.918-4.921c-0.057-28.569-0.041-57.14-0.041-85.71
			C43.489,155.136,43.48,155.136,43.471,155.136z"/>
	</g>
</g>
</svg>
